# xmcd
#
# Track frame offsets:
#	150
#	844
#	17357
#	34196
#	48928
#	70027
#	84923
#	109121
#	123038
#	137114
#	164419
#	179740
#	195502
#	224349
#	248779
#	263877
#	280910
#	304460
#
# Disc length: 4372 seconds
#
# Revision: 1
# Processed by: cddbd v1.4PL0 Copyright (c) Steve Scherf et al.
# Submitted via: audiograbber 1.82.01
#
DISCID=f0111212
DTITLE=[Gagarin] - Жажда скорости XXIX
DYEAR=2003
DGENRE=
TTITLE0=Intro - Intro
TTITLE1=Modern Talking - Superstar
TTITLE2=Miles and Smiles - Overdream (Radio Mix)
TTITLE3=Molella - Babay (Disco Man Radio Mix)
TTITLE4=Party Abusers - We Are Party People (Long Radio)
TTITLE5=DJK - I Like Chopin (Rainzy Daze) (Radio Mix)
TTITLE6=Warp Brothers - Bangin Butchers
TTITLE7=Nightwatchers - Eternal DJ (Video Edit)
TTITLE8=The Gim Reaper - The Roof Is On Fire (Shockwave Mix)
TTITLE9=Groove Coverage - The End (Brooklyn Bounce Remix)
TTITLE10=Porn Kings vs. Flip and Fill - Shake Ya Shimmy (Radio Mix)
TTITLE11=4 Clubbers - Someday (Zap Radio Cut)
TTITLE12=Supereme Dream Team vs. Clive King - Dreamer (Smurret Mix)
TTITLE13=Space 2999 - Tanz Mit Den Roboten (Extended Mix)
TTITLE14=Mythos and Watergate - A Neverding Dream (Kodozer Single Mix)
TTITLE15=E Nomine - Das Omen 2003 (Radio Mix)
TTITLE16=Safeway - I'm In Love (Molella Remix)
TTITLE17=Culture Beat - Mr. Vain '2003
EXTD=
EXTT0=
EXTT1=
EXTT2=
EXTT3=
EXTT4=
EXTT5=
EXTT6=
EXTT7=
EXTT8=
EXTT9=
EXTT10=
EXTT11=
EXTT12=
EXTT13=
EXTT14=
EXTT15=
EXTT16=
EXTT17=
PLAYORDER=
